<?xml version="1.0" encoding="UTF-8"?>
<svg xmlns="http://www.w3.org/2000/svg"
     xmlns:xlink="http://www.w3.org/1999/xlink"
     xmlns:gadfly="http://www.gadflyjl.org/ns"
     version="1.2"
     width="152.4mm" height="101.6mm" viewBox="0 0 152.4 101.6"
     stroke="none"
     fill="#000000"
     stroke-width="0.3"
     font-size="3.88"
>
<defs>
  <marker id="arrow" markerWidth="15" markerHeight="7" refX="5" refY="3.5" orient="auto" markerUnits="strokeWidth">
    <path d="M0,0 L15,3.5 L0,7 z" stroke="context-stroke" fill="context-stroke"/>
  </marker>
</defs>
<g class="plotroot xscalable yscalable" id="img-e75afecf-1">
  <g font-size="3.88" font-family="'PT Sans','Helvetica Neue','Helvetica',sans-serif" fill="#564A55" stroke="#000000" stroke-opacity="0.000" id="img-e75afecf-2">
    <g transform="translate(86.36,89.99)">
      <g class="primitive">
        <text text-anchor="middle" dy="0.6em">λ</text>
      </g>
    </g>
  </g>
  <g class="guide xlabels" font-size="2.82" font-family="'PT Sans Caption','Helvetica Neue','Helvetica',sans-serif" fill="#6C606B" id="img-e75afecf-3">
    <g transform="translate(27.32,83.32)">
      <g class="primitive">
        <text text-anchor="middle" dy="0.6em">0</text>
      </g>
    </g>
    <g transform="translate(50.94,83.32)">
      <g class="primitive">
        <text text-anchor="middle" dy="0.6em">1</text>
      </g>
    </g>
    <g transform="translate(74.55,83.32)">
      <g class="primitive">
        <text text-anchor="middle" dy="0.6em">2</text>
      </g>
    </g>
    <g transform="translate(98.17,83.32)">
      <g class="primitive">
        <text text-anchor="middle" dy="0.6em">3</text>
      </g>
    </g>
    <g transform="translate(121.78,83.32)">
      <g class="primitive">
        <text text-anchor="middle" dy="0.6em">4</text>
      </g>
    </g>
    <g transform="translate(145.4,83.32)">
      <g class="primitive">
        <text text-anchor="middle" dy="0.6em">5</text>
      </g>
    </g>
  </g>
  <g clip-path="url(#img-e75afecf-4)">
    <g id="img-e75afecf-5">
      <g pointer-events="visible" fill="#000000" fill-opacity="0.000" stroke="#000000" stroke-opacity="0.000" class="guide background" id="img-e75afecf-6">
        <g transform="translate(86.36,43.66)" id="img-e75afecf-7">
          <path d="M-61.04,-38.66 L 61.04 -38.66 61.04 38.66 -61.04 38.66 z" class="primitive"/>
        </g>
      </g>
      <g class="guide ygridlines xfixed" stroke-dasharray="0.5,0.5" stroke-width="0.2" stroke="#D0D0E0" id="img-e75afecf-8">
        <g transform="translate(86.36,80.32)" id="img-e75afecf-9">
          <path fill="none" d="M-61.04,0 L 61.04 0" class="primitive"/>
        </g>
        <g transform="translate(86.36,65.65)" id="img-e75afecf-10">
          <path fill="none" d="M-61.04,0 L 61.04 0" class="primitive"/>
        </g>
        <g transform="translate(86.36,50.99)" id="img-e75afecf-11">
          <path fill="none" d="M-61.04,0 L 61.04 0" class="primitive"/>
        </g>
        <g transform="translate(86.36,36.33)" id="img-e75afecf-12">
          <path fill="none" d="M-61.04,0 L 61.04 0" class="primitive"/>
        </g>
        <g transform="translate(86.36,21.66)" id="img-e75afecf-13">
          <path fill="none" d="M-61.04,0 L 61.04 0" class="primitive"/>
        </g>
        <g transform="translate(86.36,7)" id="img-e75afecf-14">
          <path fill="none" d="M-61.04,0 L 61.04 0" class="primitive"/>
        </g>
      </g>
      <g class="guide xgridlines yfixed" stroke-dasharray="0.5,0.5" stroke-width="0.2" stroke="#D0D0E0" id="img-e75afecf-15">
        <g transform="translate(27.32,43.66)" id="img-e75afecf-16">
          <path fill="none" d="M0,-38.66 L 0 38.66" class="primitive"/>
        </g>
        <g transform="translate(50.94,43.66)" id="img-e75afecf-17">
          <path fill="none" d="M0,-38.66 L 0 38.66" class="primitive"/>
        </g>
        <g transform="translate(74.55,43.66)" id="img-e75afecf-18">
          <path fill="none" d="M0,-38.66 L 0 38.66" class="primitive"/>
        </g>
        <g transform="translate(98.17,43.66)" id="img-e75afecf-19">
          <path fill="none" d="M0,-38.66 L 0 38.66" class="primitive"/>
        </g>
        <g transform="translate(121.78,43.66)" id="img-e75afecf-20">
          <path fill="none" d="M0,-38.66 L 0 38.66" class="primitive"/>
        </g>
        <g transform="translate(145.4,43.66)" id="img-e75afecf-21">
          <path fill="none" d="M0,-38.66 L 0 38.66" class="primitive"/>
        </g>
      </g>
      <g class="plotpanel" id="img-e75afecf-22">
        <metadata>
          <boundingbox value="25.325000000000003mm 5.0mm 122.07499999999997mm 77.315mm"/>
          <unitbox value="-0.08469193309337286 5.136397735797586e-5 5.169383866186745 -5.272795471595172e-5"/>
        </metadata>
        <g stroke-width="0.3" fill="#000000" fill-opacity="0.000" class="geometry" id="img-e75afecf-23">
          <g class="color_LCHab{Float32}(70.0f0,60.0f0,240.0f0)" stroke-dasharray="none" stroke="#00BFFF" id="img-e75afecf-24">
            <g transform="translate(86.36,69.69)" id="img-e75afecf-25">
              <path fill="none" d="M-59.04,10.62 L -58.8 10.62 -58.57 10.62 -58.33 10.62 -58.09 10.62 -57.86 10.62 -57.62 10.62 -57.38 10.62 -57.15 10.62 -56.91 10.62 -56.68 10.62 -56.44 10.62 -56.2 10.62 -55.97 10.62 -55.73 10.62 -55.5 10.62 -55.26 10.62 -55.02 10.62 -54.79 10.61 -54.55 10.61 -54.31 10.6 -54.08 10.59 -53.84 10.58 -53.61 10.56 -53.37 10.54 -53.13 10.51 -52.9 10.47 -52.66 10.42 -52.43 10.36 -52.19 10.28 -51.95 10.19 -51.72 10.08 -51.48 9.95 -51.24 9.79 -51.01 9.61 -50.77 9.4 -50.54 9.16 -50.3 8.88 -50.06 8.56 -49.83 8.2 -49.59 7.8 -49.36 7.36 -49.12 6.86 -48.88 6.32 -48.65 5.72 -48.41 5.07 -48.17 4.37 -47.94 3.61 -47.7 2.79 -47.47 1.91 -47.23 0.97 -46.99 -0.02 -46.76 -1.07 -46.52 -2.18 -46.29 -3.34 -46.05 -4.56 -45.81 -5.83 -45.58 -7.14 -45.34 -8.5 -45.1 -9.91 -44.87 -11.36 -44.63 -12.84 -44.4 -14.35 -44.16 -15.9 -43.92 -17.47 -43.69 -19.06 -43.45 -20.66 -43.22 -22.28 -42.98 -23.9 -42.74 -25.53 -42.51 -27.15 -42.27 -28.76 -42.03 -30.36 -41.8 -31.95 -41.56 -33.51 -41.33 -35.05 -41.09 -36.56 -40.85 -38.03 -40.62 -39.46 -40.38 -40.85 -40.15 -42.2 -39.91 -43.49 -39.67 -44.73 -39.44 -45.92 -39.2 -47.05 -38.96 -48.12 -38.73 -49.12 -38.49 -50.06 -38.26 -50.93 -38.02 -51.74 -37.78 -52.47 -37.55 -53.14 -37.31 -53.74 -37.08 -54.26 -36.84 -54.71 -36.6 -55.09 -36.37 -55.4 -36.13 -55.64 -35.89 -55.81 -35.66 -55.92 -35.42 -55.95 -35.19 -55.92 -34.95 -55.82 -34.71 -55.66 -34.48 -55.43 -34.24 -55.15 -34.01 -54.81 -33.77 -54.41 -33.53 -53.96 -33.3 -53.45 -33.06 -52.9 -32.82 -52.3 -32.59 -51.65 -32.35 -50.97 -32.12 -50.24 -31.88 -49.47 -31.64 -48.67 -31.41 -47.84 -31.17 -46.97 -30.94 -46.08 -30.7 -45.16 -30.46 -44.22 -30.23 -43.26 -29.99 -42.28 -29.75 -41.28 -29.52 -40.27 -29.28 -39.25 -29.05 -38.21 -28.81 -37.17 -28.57 -36.12 -28.34 -35.07 -28.1 -34.01 -27.87 -32.96 -27.63 -31.9 -27.39 -30.85 -27.16 -29.8 -26.92 -28.75 -26.68 -27.71 -26.45 -26.68 -26.21 -25.66 -25.98 -24.65 -25.74 -23.65 -25.5 -22.65 -25.27 -21.68 -25.03 -20.71 -24.8 -19.76 -24.56 -18.83 -24.32 -17.91 -24.09 -17 -23.85 -16.12 -23.61 -15.24 -23.38 -14.39 -23.14 -13.56 -22.91 -12.74 -22.67 -11.94 -22.43 -11.16 -22.2 -10.39 -21.96 -9.65 -21.73 -8.92 -21.49 -8.21 -21.25 -7.52 -21.02 -6.85 -20.78 -6.2 -20.55 -5.56 -20.31 -4.95 -20.07 -4.35 -19.84 -3.77 -19.6 -3.2 -19.36 -2.66 -19.13 -2.13 -18.89 -1.62 -18.66 -1.12 -18.42 -0.64 -18.18 -0.18 -17.95 0.27 -17.71 0.7 -17.48 1.12 -17.24 1.52 -17 1.91 -16.77 2.29 -16.53 2.65 -16.29 2.99 -16.06 3.33 -15.82 3.65 -15.59 3.96 -15.35 4.26 -15.11 4.55 -14.88 4.82 -14.64 5.09 -14.41 5.34 -14.17 5.58 -13.93 5.82 -13.7 6.04 -13.46 6.26 -13.22 6.46 -12.99 6.66 -12.75 6.85 -12.52 7.03 -12.28 7.2 -12.04 7.37 -11.81 7.53 -11.57 7.68 -11.34 7.82 -11.1 7.96 -10.86 8.09 -10.63 8.22 -10.39 8.34 -10.15 8.45 -9.92 8.56 -9.68 8.67 -9.45 8.77 -9.21 8.86 -8.97 8.95 -8.74 9.04 -8.5 9.12 -8.27 9.2 -8.03 9.27 -7.79 9.34 -7.56 9.41 -7.32 9.47 -7.08 9.53 -6.85 9.59 -6.61 9.65 -6.38 9.7 -6.14 9.75 -5.9 9.8 -5.67 9.84 -5.43 9.88 -5.2 9.92 -4.96 9.96 -4.72 10 -4.49 10.03 -4.25 10.06 -4.01 10.09 -3.78 10.12 -3.54 10.15 -3.31 10.18 -3.07 10.2 -2.83 10.23 -2.6 10.25 -2.36 10.27 -2.13 10.29 -1.89 10.31 -1.65 10.33 -1.42 10.34 -1.18 10.36 -0.94 10.37 -0.71 10.39 -0.47 10.4 -0.24 10.41 -0 10.43 0.24 10.44 0.47 10.45 0.71 10.46 0.94 10.47 1.18 10.48 1.42 10.49 1.65 10.49 1.89 10.5 2.13 10.51 2.36 10.51 2.6 10.52 2.83 10.53 3.07 10.53 3.31 10.54 3.54 10.54 3.78 10.55 4.01 10.55 4.25 10.56 4.49 10.56 4.72 10.56 4.96 10.57 5.2 10.57 5.43 10.57 5.67 10.58 5.9 10.58 6.14 10.58 6.38 10.58 6.61 10.59 6.85 10.59 7.08 10.59 7.32 10.59 7.56 10.59 7.79 10.6 8.03 10.6 8.27 10.6 8.5 10.6 8.74 10.6 8.97 10.6 9.21 10.6 9.45 10.6 9.68 10.61 9.92 10.61 10.15 10.61 10.39 10.61 10.63 10.61 10.86 10.61 11.1 10.61 11.34 10.61 11.57 10.61 11.81 10.61 12.04 10.61 12.28 10.61 12.52 10.61 12.75 10.61 12.99 10.61 13.22 10.62 13.46 10.62 13.7 10.62 13.93 10.62 14.17 10.62 14.41 10.62 14.64 10.62 14.88 10.62 15.11 10.62 15.35 10.62 15.59 10.62 15.82 10.62 16.06 10.62 16.29 10.62 16.53 10.62 16.77 10.62 17 10.62 17.24 10.62 17.48 10.62 17.71 10.62 17.95 10.62 18.18 10.62 18.42 10.62 18.66 10.62 18.89 10.62 19.13 10.62 19.36 10.62 19.6 10.62 19.84 10.62 20.07 10.62 20.31 10.62 20.55 10.62 20.78 10.62 21.02 10.62 21.25 10.62 21.49 10.62 21.73 10.62 21.96 10.62 22.2 10.62 22.43 10.62 22.67 10.62 22.91 10.62 23.14 10.62 23.38 10.62 23.61 10.62 23.85 10.62 24.09 10.62 24.32 10.62 24.56 10.62 24.8 10.62 25.03 10.62 25.27 10.62 25.5 10.62 25.74 10.62 25.98 10.62 26.21 10.62 26.45 10.62 26.68 10.62 26.92 10.62 27.16 10.62 27.39 10.62 27.63 10.62 27.87 10.62 28.1 10.62 28.34 10.62 28.57 10.62 28.81 10.62 29.05 10.62 29.28 10.62 29.52 10.62 29.75 10.62 29.99 10.62 30.23 10.62 30.46 10.62 30.7 10.62 30.94 10.62 31.17 10.62 31.41 10.62 31.64 10.62 31.88 10.62 32.12 10.62 32.35 10.62 32.59 10.62 32.82 10.62 33.06 10.62 33.3 10.62 33.53 10.62 33.77 10.62 34.01 10.62 34.24 10.62 34.48 10.62 34.71 10.62 34.95 10.62 35.19 10.62 35.42 10.62 35.66 10.62 35.89 10.62 36.13 10.62 36.37 10.62 36.6 10.62 36.84 10.62 37.08 10.62 37.31 10.62 37.55 10.62 37.78 10.62 38.02 10.62 38.26 10.62 38.49 10.62 38.73 10.62 38.96 10.62 39.2 10.62 39.44 10.62 39.67 10.62 39.91 10.62 40.15 10.62 40.38 10.62 40.62 10.62 40.85 10.62 41.09 10.62 41.33 10.62 41.56 10.62 41.8 10.62 42.03 10.62 42.27 10.62 42.51 10.62 42.74 10.62 42.98 10.62 43.22 10.62 43.45 10.62 43.69 10.62 43.92 10.62 44.16 10.62 44.4 10.62 44.63 10.62 44.87 10.62 45.1 10.62 45.34 10.62 45.58 10.62 45.81 10.62 46.05 10.62 46.29 10.62 46.52 10.62 46.76 10.62 46.99 10.62 47.23 10.62 47.47 10.62 47.7 10.62 47.94 10.62 48.17 10.62 48.41 10.62 48.65 10.62 48.88 10.62 49.12 10.62 49.36 10.62 49.59 10.62 49.83 10.62 50.06 10.62 50.3 10.62 50.54 10.62 50.77 10.62 51.01 10.62 51.24 10.62 51.48 10.62 51.72 10.62 51.95 10.62 52.19 10.62 52.43 10.62 52.66 10.62 52.9 10.62 53.13 10.62 53.37 10.62 53.61 10.62 53.84 10.62 54.08 10.62 54.31 10.62 54.55 10.62 54.79 10.62 55.02 10.62 55.26 10.62 55.5 10.62 55.73 10.62 55.97 10.62 56.2 10.62 56.44 10.62 56.68 10.62 56.91 10.62 57.15 10.62 57.38 10.62 57.62 10.62 57.86 10.62 58.09 10.62 58.33 10.62 58.57 10.62 58.8 10.62 59.04 10.62" class="primitive"/>
            </g>
          </g>
        </g>
      </g>
    </g>
  </g>
  <g class="guide ylabels" font-size="2.82" font-family="'PT Sans Caption','Helvetica Neue','Helvetica',sans-serif" fill="#6C606B" id="img-e75afecf-26">
    <g transform="translate(24.33,80.32)" id="img-e75afecf-27">
      <g class="primitive">
        <text text-anchor="end" dy="0.35em">0.00000</text>
      </g>
    </g>
    <g transform="translate(24.33,65.65)" id="img-e75afecf-28">
      <g class="primitive">
        <text text-anchor="end" dy="0.35em">0.00001</text>
      </g>
    </g>
    <g transform="translate(24.33,50.99)" id="img-e75afecf-29">
      <g class="primitive">
        <text text-anchor="end" dy="0.35em">0.00002</text>
      </g>
    </g>
    <g transform="translate(24.33,36.33)" id="img-e75afecf-30">
      <g class="primitive">
        <text text-anchor="end" dy="0.35em">0.00003</text>
      </g>
    </g>
    <g transform="translate(24.33,21.66)" id="img-e75afecf-31">
      <g class="primitive">
        <text text-anchor="end" dy="0.35em">0.00004</text>
      </g>
    </g>
    <g transform="translate(24.33,7)" id="img-e75afecf-32">
      <g class="primitive">
        <text text-anchor="end" dy="0.35em">0.00005</text>
      </g>
    </g>
  </g>
  <g font-size="3.88" font-family="'PT Sans','Helvetica Neue','Helvetica',sans-serif" fill="#564A55" stroke="#000000" stroke-opacity="0.000" id="img-e75afecf-33">
    <g transform="translate(8.81,41.66)" id="img-e75afecf-34">
      <g class="primitive">
        <text text-anchor="middle" dy="0.35em" transform="rotate(-90,0, 2)">Likelihood</text>
      </g>
    </g>
  </g>
</g>
<defs>
  <clipPath id="img-e75afecf-4">
    <path d="M25.33,5 L 147.4 5 147.4 82.32 25.33 82.32" />
  </clipPath>
</defs>
</svg>
