<?xml version="1.0" encoding="iso-8859-1"?>
<!-- Generator: Adobe Illustrator 19.0.0, SVG Export Plug-In . SVG Version: 6.00 Build 0)  -->
<svg version="1.1" id="Layer_1" xmlns="http://www.w3.org/2000/svg" xmlns:xlink="http://www.w3.org/1999/xlink" x="0px" y="0px"
	 viewBox="0 0 512 512" style="enable-background:new 0 0 512 512;" xml:space="preserve">
<circle style="fill:#FF6161;" cx="256" cy="256" r="256"/>
<path style="fill:#D33939;" d="M345.607,154.427L129.493,330.733l176.362,176.399c98.633-19.472,176.916-95.585,199.525-193.053
	L345.607,154.427z"/>
<path style="fill:#FFFFFF;" d="M407.13,292.204c0,29.656-67.663,90.502-151.13,90.502s-151.13-65.443-151.13-90.502
	c0-75.533,67.663-179.864,151.13-179.864S407.13,216.673,407.13,292.204z"/>
<path style="fill:#E2E1E0;" d="M256,112.342c-0.191,0-0.383,0.01-0.574,0.01v270.346c0.191,0,0.383,0.007,0.574,0.007
	c83.466,0,151.13-60.845,151.13-90.502C407.13,216.673,339.466,112.342,256,112.342z"/>
<path style="fill:#434849;" d="M365.621,177.614C338.084,140.233,299.156,112.34,256,112.34s-82.084,27.893-109.621,65.274
	c34.309,4.651,75.583,24.281,73.638,92.243v16.022c0,19.873,16.11,35.983,35.983,35.983s35.983-16.11,35.983-35.983v-16.022
	C290.039,201.895,331.312,182.265,365.621,177.614z"/>
<path style="fill:#181919;" d="M365.621,177.614C338.084,140.233,299.156,112.34,256,112.34c-0.191,0-0.383,0.01-0.574,0.012v209.48
	c0.193,0.003,0.381,0.029,0.574,0.029c19.873,0,35.983-16.11,35.983-35.983v-16.022
	C290.039,201.895,331.312,182.265,365.621,177.614z"/>
<path style="fill:#FFC61B;" d="M280.245,297.55c0,0-10.855,19.715-24.245,19.715c-13.39,0-24.245-19.715-24.245-19.715
	S242.61,277.835,256,277.835C269.39,277.835,280.245,297.55,280.245,297.55z"/>
<path style="fill:#EFAF11;" d="M256,277.837c-0.193,0-0.383,0.017-0.574,0.026v39.376c0.191,0.009,0.381,0.026,0.574,0.026
	c13.39,0,24.245-19.715,24.245-19.715S269.39,277.837,256,277.837z"/>
<g>
	<circle style="fill:#1E262B;" cx="183.199" cy="254.845" r="8.328"/>
	<circle style="fill:#1E262B;" cx="328.801" cy="254.845" r="8.328"/>
</g>
<g>
</g>
<g>
</g>
<g>
</g>
<g>
</g>
<g>
</g>
<g>
</g>
<g>
</g>
<g>
</g>
<g>
</g>
<g>
</g>
<g>
</g>
<g>
</g>
<g>
</g>
<g>
</g>
<g>
</g>
</svg>
